<?xml version="1.0" encoding="UTF-8"?>
<svg id="Layer_2" data-name="Layer 2" xmlns="http://www.w3.org/2000/svg" viewBox="0 0 97.2 97.2">
  <defs>
    <style>
      .cls-1 {
        stroke-width: .5px;
      }

      .cls-1, .cls-2, .cls-3, .cls-4 {
        fill: #fff;
      }

      .cls-1, .cls-2, .cls-4 {
        stroke: #231f20;
      }

      .cls-1, .cls-2, .cls-5 {
        stroke-linecap: round;
        stroke-linejoin: round;
      }

      .cls-6, .cls-5 {
        fill: #231f20;
      }

      .cls-7, .cls-3, .cls-8, .cls-9 {
        isolation: isolate;
      }

      .cls-3 {
        font-size: 24px;
      }

      .cls-3, .cls-8 {
        font-family: MyriadPro-Bold, 'Myriad Pro';
        font-weight: 700;
      }

      .cls-10 {
        letter-spacing: 0em;
      }

      .cls-11 {
        fill: #30a23e;
      }

      .cls-8, .cls-9 {
        font-size: 12.24px;
      }

      .cls-4 {
        stroke-miterlimit: 10;
        stroke-width: 2px;
      }

      .cls-12 {
        letter-spacing: 0em;
      }

      .cls-5 {
        stroke: #fff;
      }

      .cls-9 {
        font-family: MyriadPro-Regular, 'Myriad Pro';
      }
    </style>
  </defs>
  <g id="Layer_1-2" data-name="Layer 1">
    <g>
      <rect class="cls-11" x="15.23" y="15.23" width="66.73" height="66.73" transform="translate(-20.13 48.6) rotate(-45)"/>
      <path class="cls-6" d="M48.6,2.83l45.77,45.77-45.77,45.77L2.83,48.6,48.6,2.83M48.6,0L0,48.6l48.6,48.6,48.6-48.6L48.6,0h0Z"/>
    </g>
    <rect class="cls-4" x="14.86" y="69.83" width="67.48" height="18.28"/>
    <g class="cls-7">
      <text class="cls-9" transform="translate(32.92 83.6)"><tspan x="0" y="0">N</tspan><tspan class="cls-12" x="8.05" y="0">A</tspan><tspan class="cls-10" x="15.5" y="0">ME</tspan></text>
    </g>
    <g class="cls-7">
      <text class="cls-9" transform="translate(32.92 83.6)"><tspan x="0" y="0">N</tspan><tspan class="cls-12" x="8.05" y="0">A</tspan><tspan class="cls-10" x="15.5" y="0">ME</tspan></text>
    </g>
    <g class="cls-7">
      <text class="cls-9" transform="translate(32.92 83.6)"><tspan x="0" y="0">N</tspan><tspan class="cls-12" x="8.05" y="0">A</tspan><tspan class="cls-10" x="15.5" y="0">ME</tspan></text>
    </g>
    <g class="cls-7">
      <text class="cls-8" transform="translate(31.91 83.6)"><tspan x="0" y="0">NAME</tspan></text>
    </g>
    <g class="cls-7">
      <text class="cls-3" transform="translate(11.2 55.39)"><tspan x="0" y="0">6</tspan></text>
    </g>
    <g class="cls-7">
      <text class="cls-3" transform="translate(72.2 55.39)"><tspan x="0" y="0">7</tspan></text>
    </g>
    <g>
      <g>
        <path class="cls-2" d="M36.99,29.83v-1.02l.3-.38-.5-.29-.23-1.91h1.06l.23-.98.53-1.23.64-1.1,1.52-1.86,1.34-1.32.38-.19v-.28l.13-.23s-.24-.41-.24-1.37.21-1.87,1.13-2.41,2-.46,2.36-.26,1.34.55,1.34.55l.4.09.49.77.5.87-.26.15.26.45.44.25.36.3.55.17.77-.21.92.21v.23h.4l.61.35.62.35.22.38,1.08.58.4-.04,1.17.89h.38l.55.49v.28l.34.04,1.02,1.23.26,2.09.28.66v1.89l.64.7.19,1.3-.26.57-.67,1.15-.74-.51.09-.87-.26-.15-.47.27-.34-1.31-.43-.49-.47-.68-.38-1.36-.21-.85-.13-.47-.42-.73-1.79-.78-.62-.51-.14.25-.92-.12v.49l.47.21.21,1.17.85,2.04-.13.85.51,2.98.38,2.55-.23.64.11.47h.32l1.15,3.83.36.15.13,2.32.47.81-.06,1.49.11,1.04-.55.94-1.15.17-.53-.77-.06-.53-.13-.57-.11-1.47-.21-.66-.68-.64-.62-.79.18-.31-1.22-1.61-.64-.38.04-.57.09-.57-.66-1.87-.56-.97-.42-2.31v-.55l-.47-.62-.74.43-.66.64-.13.6-1.79,3.11-.12.85-.3.52-.19,1.01-.62,1.94.43.25-.15.73-.26.26.09,1.55-.36.62-.54.04-.85.87-.02.64-.87,1.15-1.3-.26-.28-.65.19-.9.63-1.09.33-.94.36-.51v-1.85l-.46-.81-.41-1.79-.19-.34s.39-.03.38-.22.26-1.41.26-1.41l.43-1.04.68-1.58,1.81-4.13.79-1.33-.16-.27-1.01-.4-.62-1.75-.62.21-.64.87-.5.29.03.39-.34.06.15.26-.33.19-.11.53-.19.32-.51,1.23.13.45-.19.64.51.42.23.47-.23.66-.11.7-.98-.06-.98-.81-1.04-1.36Z"/>
        <path class="cls-2" d="M42.73,19.29c0,.32,1.85-1.92,3.08-2.27s1.63-.51,1.63-.51l.75,1.29s.36.48.18,1.03-.54,1.6-1.07,1.91-1.65.77-2.22.77-1.45-.58-1.45-.58l-.68-.85-.22-.79Z"/>
        <polygon class="cls-5" points="42.03 23.87 42.73 23.01 48.58 22.79 49.89 25.31 49.37 26.21 47.94 23.75 42.03 23.87"/>
        <polygon class="cls-2" points="42.22 24.77 43.05 26.21 49.37 26.21 47.94 23.75 42.03 23.87 42.22 24.77"/>
        <polygon class="cls-5" points="39.35 31.35 40.76 33.06 40.66 34.01 40.65 34.59 41.21 35.4 40.9 36.03 39.73 35.23 39.61 34.75 39.22 34.75 37.86 33.31 37.97 31.12 39.35 31.35"/>
        <path class="cls-5" d="M37.66,30.8l-.12.48s-.47.04-.4,0,.52.68.52.68l-.26,1.32.47.45.33-.58v-.68l.61-.64"/>
      </g>
      <g>
        <path class="cls-2" d="M28.44,45.26v-1.02l.3-.38-.5-.29-.23-1.91h1.06l.23-.98.53-1.23.64-1.1,1.52-1.86,1.34-1.32.38-.19v-.28l.13-.23s-.24-.41-.24-1.37.21-1.87,1.13-2.41,2-.46,2.36-.26,1.34.55,1.34.55l.4.09.49.77.5.87-.26.15.26.45.44.25.36.3.55.17.77-.21.92.21v.23h.4l.61.35.62.35.22.38,1.08.58.4-.04,1.17.89h.38l.55.49v.28l.34.04,1.02,1.23.26,2.09.28.66v1.89l.64.7.19,1.3-.26.57-.67,1.15-.74-.51.09-.87-.26-.15-.47.27-.34-1.31-.43-.49-.47-.68-.38-1.36-.21-.85-.13-.47-.42-.73-1.79-.78-.62-.51-.14.25-.92-.12v.49l.47.21.21,1.17.85,2.04-.13.85.51,2.98.38,2.55-.23.64.11.47h.32l1.15,3.83.36.15.13,2.32.47.81-.06,1.49.11,1.04-.55.94-1.15.17-.53-.77-.06-.53-.13-.57-.11-1.47-.21-.66-.68-.64-.62-.79.18-.31-1.22-1.61-.64-.38.04-.57.09-.57-.66-1.87-.56-.97-.42-2.31v-.55l-.47-.62-.74.43-.66.64-.13.6-1.79,3.11-.12.85-.3.52-.19,1.01-.62,1.94.43.25-.15.73-.26.26.09,1.55-.36.62-.54.04-.85.87-.02.64-.87,1.15-1.3-.26-.28-.65.19-.9.63-1.09.33-.94.36-.51v-1.85l-.46-.81-.41-1.79-.19-.34s.39-.03.38-.22.26-1.41.26-1.41l.43-1.04.68-1.58,1.81-4.13.79-1.33-.16-.27-1.01-.4-.62-1.75-.62.21-.64.87-.5.29.03.39-.34.06.15.26-.33.19-.11.53-.19.32-.51,1.23.13.45-.19.64.51.42.23.47-.23.66-.11.7-.98-.06-.98-.81-1.04-1.36Z"/>
        <path class="cls-2" d="M34.18,34.72c0,.32,1.85-1.92,3.08-2.27s1.63-.51,1.63-.51l.75,1.29s.36.48.18,1.03-.54,1.6-1.07,1.91-1.65.77-2.22.77-1.45-.58-1.45-.58l-.68-.85-.22-.79Z"/>
        <polygon class="cls-5" points="33.49 39.3 34.18 38.44 40.03 38.22 41.34 40.74 40.83 41.63 39.4 39.17 33.49 39.3"/>
        <polygon class="cls-2" points="33.68 40.2 34.51 41.63 40.83 41.63 39.4 39.17 33.49 39.3 33.68 40.2"/>
      </g>
      <g>
        <path class="cls-2" d="M48.5,45.26v-1.02l.3-.38-.5-.29-.23-1.91h1.06l.23-.98.53-1.23.64-1.1,1.52-1.86,1.34-1.32.38-.19v-.28l.13-.23s-.24-.41-.24-1.37.21-1.87,1.13-2.41,2-.46,2.36-.26,1.34.55,1.34.55l.4.09.49.77.5.87-.26.15.26.45.44.25.36.3.55.17.77-.21.92.21v.23h.4l.61.35.62.35.22.38,1.08.58.4-.04,1.17.89h.38l.55.49v.28l.34.04,1.02,1.23.26,2.09.28.66v1.89l.64.7.19,1.3-.26.57-.67,1.15-.74-.51.09-.87-.26-.15-.47.27-.34-1.31-.43-.49-.47-.68-.38-1.36-.21-.85-.13-.47-.42-.73-1.79-.78-.62-.51-.14.25-.92-.12v.49l.47.21.21,1.17.85,2.04-.13.85.51,2.98.38,2.55-.23.64.11.47h.32l1.15,3.83.36.15.13,2.32.47.81-.06,1.49.11,1.04-.55.94-1.15.17-.53-.77-.06-.53-.13-.57-.11-1.47-.21-.66-.68-.64-.62-.79.18-.31-1.22-1.61-.64-.38.04-.57.09-.57-.66-1.87-.56-.97-.42-2.31v-.55l-.47-.62-.74.43-.66.64-.13.6-1.79,3.11-.12.85-.3.52-.19,1.01-.62,1.94.43.25-.15.73-.26.26.09,1.55-.36.62-.54.04-.85.87-.02.64-.87,1.15-1.3-.26-.28-.65.19-.9.63-1.09.33-.94.36-.51v-1.85l-.46-.81-.41-1.79-.19-.34s.39-.03.38-.22.26-1.41.26-1.41l.43-1.04.68-1.58,1.81-4.13.79-1.33-.16-.27-1.01-.4-.62-1.75-.62.21-.64.87-.5.29.03.39-.34.06.15.26-.33.19-.11.53-.19.32-.51,1.23.13.45-.19.64.51.42.23.47-.23.66-.11.7-.98-.06-.98-.81-1.04-1.36Z"/>
        <path class="cls-2" d="M54.24,34.72c0,.32,1.85-1.92,3.08-2.27s1.63-.51,1.63-.51l.75,1.29s.36.48.18,1.03-.54,1.6-1.07,1.91-1.65.77-2.22.77-1.45-.58-1.45-.58l-.68-.85-.22-.79Z"/>
        <polygon class="cls-5" points="53.55 39.3 54.24 38.44 60.1 38.22 61.4 40.74 60.89 41.63 59.46 39.17 53.55 39.3"/>
        <polygon class="cls-2" points="53.74 40.2 54.57 41.63 60.89 41.63 59.46 39.17 53.55 39.3 53.74 40.2"/>
      </g>
    </g>
    <g>
      <g>
        <path class="cls-1" d="M36.99,29.83v-1.02l.3-.38-.5-.29-.23-1.91h1.06l.23-.98.53-1.23.64-1.1,1.52-1.86,1.34-1.32.38-.19v-.28l.13-.23s-.24-.41-.24-1.37.21-1.87,1.13-2.41,2-.46,2.36-.26,1.34.55,1.34.55l.4.09.49.77.5.87-.26.15.26.45.44.25.36.3.55.17.77-.21.92.21v.23h.4l.61.35.62.35.22.38,1.08.58.4-.04,1.17.89h.38l.55.49v.28l.34.04,1.02,1.23.26,2.09.28.66v1.89l.64.7.19,1.3-.26.57-.67,1.15-.74-.51.09-.87-.26-.15-.47.27-.34-1.31-.43-.49-.47-.68-.38-1.36-.21-.85-.13-.47-.42-.73-1.79-.78-.62-.51-.14.25-.92-.12v.49l.47.21.21,1.17.85,2.04-.13.85.51,2.98.38,2.55-.23.64.11.47h.32l1.15,3.83.36.15.13,2.32.47.81-.06,1.49.11,1.04-.55.94-1.15.17-.53-.77-.06-.53-.13-.57-.11-1.47-.21-.66-.68-.64-.62-.79.18-.31-1.22-1.61-.64-.38.04-.57.09-.57-.66-1.87-.56-.97-.42-2.31v-.55l-.47-.62-.74.43-.66.64-.13.6-1.79,3.11-.12.85-.3.52-.19,1.01-.62,1.94.43.25-.15.73-.26.26.09,1.55-.36.62-.54.04-.85.87-.02.64-.87,1.15-1.3-.26-.28-.65.19-.9.63-1.09.33-.94.36-.51v-1.85l-.46-.81-.41-1.79-.19-.34s.39-.03.38-.22.26-1.41.26-1.41l.43-1.04.68-1.58,1.81-4.13.79-1.33-.16-.27-1.01-.4-.62-1.75-.62.21-.64.87-.5.29.03.39-.34.06.15.26-.33.19-.11.53-.19.32-.51,1.23.13.45-.19.64.51.42.23.47-.23.66-.11.7-.98-.06-.98-.81-1.04-1.36Z"/>
        <path class="cls-1" d="M42.73,19.29c0,.32,1.85-1.92,3.08-2.27s1.63-.51,1.63-.51l.75,1.29s.36.48.18,1.03-.54,1.6-1.07,1.91-1.65.77-2.22.77-1.45-.58-1.45-.58l-.68-.85-.22-.79Z"/>
        <polygon class="cls-5" points="42.03 23.87 42.73 23.01 48.58 22.79 49.89 25.31 49.37 26.21 47.94 23.75 42.03 23.87"/>
        <polygon class="cls-1" points="42.22 24.77 43.05 26.21 49.37 26.21 47.94 23.75 42.03 23.87 42.22 24.77"/>
        <polygon class="cls-5" points="39.35 31.35 40.76 33.06 40.66 34.01 40.65 34.59 41.21 35.4 40.9 36.03 39.73 35.23 39.61 34.75 39.22 34.75 37.86 33.31 37.97 31.12 39.35 31.35"/>
        <path class="cls-5" d="M37.66,30.8l-.12.48s-.47.04-.4,0,.52.68.52.68l-.26,1.32.47.45.33-.58v-.68l.61-.64"/>
      </g>
      <g>
        <path class="cls-1" d="M28.44,45.26v-1.02l.3-.38-.5-.29-.23-1.91h1.06l.23-.98.53-1.23.64-1.1,1.52-1.86,1.34-1.32.38-.19v-.28l.13-.23s-.24-.41-.24-1.37.21-1.87,1.13-2.41,2-.46,2.36-.26,1.34.55,1.34.55l.4.09.49.77.5.87-.26.15.26.45.44.25.36.3.55.17.77-.21.92.21v.23h.4l.61.35.62.35.22.38,1.08.58.4-.04,1.17.89h.38l.55.49v.28l.34.04,1.02,1.23.26,2.09.28.66v1.89l.64.7.19,1.3-.26.57-.67,1.15-.74-.51.09-.87-.26-.15-.47.27-.34-1.31-.43-.49-.47-.68-.38-1.36-.21-.85-.13-.47-.42-.73-1.79-.78-.62-.51-.14.25-.92-.12v.49l.47.21.21,1.17.85,2.04-.13.85.51,2.98.38,2.55-.23.64.11.47h.32l1.15,3.83.36.15.13,2.32.47.81-.06,1.49.11,1.04-.55.94-1.15.17-.53-.77-.06-.53-.13-.57-.11-1.47-.21-.66-.68-.64-.62-.79.18-.31-1.22-1.61-.64-.38.04-.57.09-.57-.66-1.87-.56-.97-.42-2.31v-.55l-.47-.62-.74.43-.66.64-.13.6-1.79,3.11-.12.85-.3.52-.19,1.01-.62,1.94.43.25-.15.73-.26.26.09,1.55-.36.62-.54.04-.85.87-.02.64-.87,1.15-1.3-.26-.28-.65.19-.9.63-1.09.33-.94.36-.51v-1.85l-.46-.81-.41-1.79-.19-.34s.39-.03.38-.22.26-1.41.26-1.41l.43-1.04.68-1.58,1.81-4.13.79-1.33-.16-.27-1.01-.4-.62-1.75-.62.21-.64.87-.5.29.03.39-.34.06.15.26-.33.19-.11.53-.19.32-.51,1.23.13.45-.19.64.51.42.23.47-.23.66-.11.7-.98-.06-.98-.81-1.04-1.36Z"/>
        <path class="cls-1" d="M34.18,34.72c0,.32,1.85-1.92,3.08-2.27s1.63-.51,1.63-.51l.75,1.29s.36.48.18,1.03-.54,1.6-1.07,1.91-1.65.77-2.22.77-1.45-.58-1.45-.58l-.68-.85-.22-.79Z"/>
        <polygon class="cls-5" points="33.49 39.3 34.18 38.44 40.03 38.22 41.34 40.74 40.83 41.63 39.4 39.17 33.49 39.3"/>
        <polygon class="cls-1" points="33.68 40.2 34.51 41.63 40.83 41.63 39.4 39.17 33.49 39.3 33.68 40.2"/>
      </g>
      <g>
        <path class="cls-1" d="M48.5,45.26v-1.02l.3-.38-.5-.29-.23-1.91h1.06l.23-.98.53-1.23.64-1.1,1.52-1.86,1.34-1.32.38-.19v-.28l.13-.23s-.24-.41-.24-1.37.21-1.87,1.13-2.41,2-.46,2.36-.26,1.34.55,1.34.55l.4.09.49.77.5.87-.26.15.26.45.44.25.36.3.55.17.77-.21.92.21v.23h.4l.61.35.62.35.22.38,1.08.58.4-.04,1.17.89h.38l.55.49v.28l.34.04,1.02,1.23.26,2.09.28.66v1.89l.64.7.19,1.3-.26.57-.67,1.15-.74-.51.09-.87-.26-.15-.47.27-.34-1.31-.43-.49-.47-.68-.38-1.36-.21-.85-.13-.47-.42-.73-1.79-.78-.62-.51-.14.25-.92-.12v.49l.47.21.21,1.17.85,2.04-.13.85.51,2.98.38,2.55-.23.64.11.47h.32l1.15,3.83.36.15.13,2.32.47.81-.06,1.49.11,1.04-.55.94-1.15.17-.53-.77-.06-.53-.13-.57-.11-1.47-.21-.66-.68-.64-.62-.79.18-.31-1.22-1.61-.64-.38.04-.57.09-.57-.66-1.87-.56-.97-.42-2.31v-.55l-.47-.62-.74.43-.66.64-.13.6-1.79,3.11-.12.85-.3.52-.19,1.01-.62,1.94.43.25-.15.73-.26.26.09,1.55-.36.62-.54.04-.85.87-.02.64-.87,1.15-1.3-.26-.28-.65.19-.9.63-1.09.33-.94.36-.51v-1.85l-.46-.81-.41-1.79-.19-.34s.39-.03.38-.22.26-1.41.26-1.41l.43-1.04.68-1.58,1.81-4.13.79-1.33-.16-.27-1.01-.4-.62-1.75-.62.21-.64.87-.5.29.03.39-.34.06.15.26-.33.19-.11.53-.19.32-.51,1.23.13.45-.19.64.51.42.23.47-.23.66-.11.7-.98-.06-.98-.81-1.04-1.36Z"/>
        <path class="cls-1" d="M54.24,34.72c0,.32,1.85-1.92,3.08-2.27s1.63-.51,1.63-.51l.75,1.29s.36.48.18,1.03-.54,1.6-1.07,1.91-1.65.77-2.22.77-1.45-.58-1.45-.58l-.68-.85-.22-.79Z"/>
        <polygon class="cls-5" points="53.55 39.3 54.24 38.44 60.1 38.22 61.4 40.74 60.89 41.63 59.46 39.17 53.55 39.3"/>
        <polygon class="cls-1" points="53.74 40.2 54.57 41.63 60.89 41.63 59.46 39.17 53.55 39.3 53.74 40.2"/>
      </g>
    </g>
  </g>
</svg>