<?xml version="1.0" encoding="UTF-8"?>
<svg id="Layer_2" data-name="Layer 2" xmlns="http://www.w3.org/2000/svg" viewBox="0 0 97.2 97.2">
  <defs>
    <style>
      .cls-1 {
        fill: #231f20;
      }

      .cls-2, .cls-3, .cls-4, .cls-5 {
        isolation: isolate;
      }

      .cls-3 {
        font-size: 24px;
      }

      .cls-3, .cls-6, .cls-7 {
        fill: #fff;
      }

      .cls-3, .cls-4 {
        font-family: MyriadPro-Bold, 'Myriad Pro';
        font-weight: 700;
      }

      .cls-8 {
        letter-spacing: 0em;
      }

      .cls-9 {
        fill: #30a23e;
      }

      .cls-4, .cls-5 {
        font-size: 12.24px;
      }

      .cls-7 {
        stroke: #231f20;
        stroke-miterlimit: 10;
        stroke-width: 2px;
      }

      .cls-10 {
        letter-spacing: 0em;
      }

      .cls-5 {
        font-family: MyriadPro-Regular, 'Myriad Pro';
      }
    </style>
  </defs>
  <g id="Layer_1-2" data-name="Layer 1">
    <g>
      <rect class="cls-9" x="15.23" y="15.23" width="66.73" height="66.73" transform="translate(-20.13 48.6) rotate(-45)"/>
      <path class="cls-1" d="M48.6,2.83l45.77,45.77-45.77,45.77L2.83,48.6,48.6,2.83M48.6,0L0,48.6l48.6,48.6,48.6-48.6L48.6,0h0Z"/>
    </g>
    <rect class="cls-7" x="14.86" y="69.83" width="67.48" height="18.28"/>
    <g class="cls-2">
      <text class="cls-5" transform="translate(32.92 83.6)"><tspan x="0" y="0">N</tspan><tspan class="cls-10" x="8.05" y="0">A</tspan><tspan class="cls-8" x="15.5" y="0">ME</tspan></text>
    </g>
    <g class="cls-2">
      <text class="cls-5" transform="translate(32.92 83.6)"><tspan x="0" y="0">N</tspan><tspan class="cls-10" x="8.05" y="0">A</tspan><tspan class="cls-8" x="15.5" y="0">ME</tspan></text>
    </g>
    <g class="cls-2">
      <text class="cls-5" transform="translate(32.92 83.6)"><tspan x="0" y="0">N</tspan><tspan class="cls-10" x="8.05" y="0">A</tspan><tspan class="cls-8" x="15.5" y="0">ME</tspan></text>
    </g>
    <g class="cls-2">
      <text class="cls-4" transform="translate(31.91 83.6)"><tspan x="0" y="0">NAME</tspan></text>
    </g>
    <g class="cls-2">
      <text class="cls-3" transform="translate(11.2 55.39)"><tspan x="0" y="0">6</tspan></text>
    </g>
    <g class="cls-2">
      <text class="cls-3" transform="translate(72.2 55.39)"><tspan x="0" y="0">7</tspan></text>
    </g>
    <g>
      <path class="cls-6" d="M35.53,59.26l-.18-1.04,6.6-9.4c-8.5-6.25-15.69-14.17-13.31-17.56.57-.82,1.6-1.23,3.05-1.23.82,0,1.79.13,2.87.4-1.7-2.58-2.12-4.58-1.22-5.86.57-.82,1.6-1.23,3.06-1.23,3.88,0,10.88,3.05,17.97,7.81l5.55-7.91,1.04-.18,1.64,1.16.18,1.04-5.56,7.9c8.5,6.25,15.69,14.17,13.31,17.56-.57.82-1.6,1.23-3.05,1.23-.82,0-1.79-.13-2.87-.4,1.7,2.57,2.12,4.58,1.22,5.86-.58.82-1.6,1.23-3.06,1.23h0c-3.88,0-10.88-3.05-17.98-7.81l-6.6,9.4-1.04.18-1.64-1.16ZM47,48.17c4.09,2.65,8.03,4.4,10.37,4.61l-9.11-6.4-1.26,1.79ZM58.62,50.99c-.3-.64-.82-1.46-1.65-2.45-2.36-1.19-4.79-2.63-7.24-4.26l-.22.31,9.11,6.4ZM59.21,45.37c1.12.4,2.1.65,2.87.72l-9.11-6.4-.22.31c2.37,1.75,4.54,3.55,6.46,5.37ZM35.87,37.67c.87,1.82,3.45,4.85,7.85,8.2l1.26-1.79-9.11-6.4ZM63.33,44.3c-.87-1.82-3.45-4.85-7.85-8.2l-1.26,1.79,9.11,6.4ZM46.23,42.29l.22-.31c-2.37-1.75-4.54-3.55-6.46-5.37-1.12-.4-2.1-.65-2.87-.72l9.11,6.4ZM42.22,33.43c2.36,1.2,4.79,2.63,7.24,4.26l.22-.31-9.11-6.4c.3.64.82,1.46,1.65,2.45ZM50.94,35.59l1.26-1.79c-4.09-2.65-8.03-4.4-10.37-4.61l9.11,6.4Z"/>
      <path class="cls-1" d="M60.54,23.67l1.64,1.16-5.98,8.51c9.46,6.82,15.58,14.33,13.73,16.96-.44.62-1.28.91-2.44.91-1.26,0-2.9-.35-4.79-1,2.41,3,3.44,5.48,2.53,6.78-.44.62-1.28.91-2.44.91-3.75,0-10.82-3.06-18.16-8.09l-7.03,10-1.64-1.16,7.03-10c-9.46-6.82-15.58-14.33-13.74-16.96.44-.62,1.28-.91,2.44-.91,1.26,0,2.9.35,4.79,1-2.41-3-3.44-5.48-2.53-6.78.44-.62,1.28-.91,2.44-.91,3.75,0,10.82,3.06,18.16,8.09l5.98-8.51M51.12,36.64l2.14-3.04c-4.83-3.23-9.41-5.18-11.88-5.18-.61,0-1.1.12-1.42.37l11.17,7.85M49.65,38.73l1.07-1.53-11.17-7.85c-.33,1,.51,2.69,2.19,4.68,2.49,1.25,5.18,2.84,7.91,4.69M64.34,45.93c.64-1.96-3.2-6.58-9.03-10.89l-2.13,3.04,11.17,7.85M46.42,43.33l1.07-1.53c-2.67-1.94-5.07-3.93-7.1-5.85-1.49-.55-2.76-.84-3.72-.84-.61,0-1.1.12-1.42.37l11.17,7.85M43.89,46.93l2.13-3.04-11.17-7.85c-.64,1.96,3.2,6.58,9.03,10.89M62.53,46.86c.61,0,1.1-.12,1.42-.37l-11.17-7.85-1.07,1.53c2.67,1.94,5.07,3.93,7.1,5.85,1.49.55,2.76.84,3.72.84M59.64,52.62c.33-1-.51-2.69-2.19-4.68-2.49-1.25-5.18-2.84-7.91-4.69l-1.07,1.53,11.17,7.85M57.82,53.56c.61,0,1.1-.12,1.42-.37l-11.17-7.85-2.13,3.04c4.83,3.23,9.41,5.18,11.88,5.18M61.41,22.44l-2.09.36-5.13,7.31c-7.08-4.67-13.81-7.53-17.78-7.53h0c-1.71,0-2.95.52-3.67,1.55-.91,1.29-.79,3.05.34,5.24-.49-.07-.95-.1-1.38-.1-1.71,0-2.94.52-3.67,1.55-1.35,1.92-.44,4.85,2.69,8.71,2.43,2.99,6.02,6.31,10.2,9.45l-6.18,8.8.36,2.09,1.64,1.16,2.09-.36,6.18-8.8c7.08,4.67,13.81,7.53,17.78,7.53,1.71,0,2.95-.52,3.67-1.55.91-1.29.79-3.05-.34-5.24.49.07.95.1,1.38.1,1.71,0,2.94-.52,3.67-1.55,1.35-1.92.44-4.85-2.69-8.71-2.43-2.99-6.02-6.31-10.2-9.45l5.13-7.31-.36-2.09-1.64-1.16h0ZM50.76,34.55l-4.61-3.24c1.47.65,3.15,1.55,4.99,2.7l-.38.54h0ZM55.26,37.72l.38-.54c1.76,1.37,3.16,2.66,4.25,3.79l-4.63-3.25h0ZM43.56,44.79c-1.76-1.37-3.16-2.66-4.25-3.79l4.63,3.25-.38.54h0ZM48.07,47.96l.38-.54,4.61,3.24c-1.47-.65-3.15-1.55-4.99-2.7h0Z"/>
    </g>
  </g>
</svg>